<svg width="65" height="64" viewBox="0 0 65 64" fill="none" xmlns="http://www.w3.org/2000/svg">
<path d="M44.3333 18.6666H41V16.9999C41 16.5579 40.8244 16.134 40.5118 15.8214C40.1993 15.5088 39.7754 15.3333 39.3333 15.3333C38.8913 15.3333 38.4674 15.5088 38.1548 15.8214C37.8423 16.134 37.6667 16.5579 37.6667 16.9999V18.6666H27.6667V16.9999C27.6667 16.5579 27.4911 16.134 27.1785 15.8214C26.866 15.5088 26.442 15.3333 26 15.3333C25.558 15.3333 25.1341 15.5088 24.8215 15.8214C24.5089 16.134 24.3333 16.5579 24.3333 16.9999V18.6666H21C19.6739 18.6666 18.4021 19.1934 17.4645 20.1311C16.5268 21.0687 16 22.3405 16 23.6666V43.6666C16 44.9927 16.5268 46.2644 17.4645 47.2021C18.4021 48.1398 19.6739 48.6666 21 48.6666H44.3333C45.6594 48.6666 46.9312 48.1398 47.8689 47.2021C48.8066 46.2644 49.3333 44.9927 49.3333 43.6666V23.6666C49.3333 22.3405 48.8066 21.0687 47.8689 20.1311C46.9312 19.1934 45.6594 18.6666 44.3333 18.6666ZM46 43.6666C46 44.1086 45.8244 44.5325 45.5118 44.8451C45.1993 45.1577 44.7754 45.3333 44.3333 45.3333H21C20.558 45.3333 20.134 45.1577 19.8215 44.8451C19.5089 44.5325 19.3333 44.1086 19.3333 43.6666V31.9999H46V43.6666ZM46 28.6666H19.3333V23.6666C19.3333 23.2246 19.5089 22.8006 19.8215 22.4881C20.134 22.1755 20.558 21.9999 21 21.9999H24.3333V23.6666C24.3333 24.1086 24.5089 24.5325 24.8215 24.8451C25.1341 25.1577 25.558 25.3333 26 25.3333C26.442 25.3333 26.866 25.1577 27.1785 24.8451C27.4911 24.5325 27.6667 24.1086 27.6667 23.6666V21.9999H37.6667V23.6666C37.6667 24.1086 37.8423 24.5325 38.1548 24.8451C38.4674 25.1577 38.8913 25.3333 39.3333 25.3333C39.7754 25.3333 40.1993 25.1577 40.5118 24.8451C40.8244 24.5325 41 24.1086 41 23.6666V21.9999H44.3333C44.7754 21.9999 45.1993 22.1755 45.5118 22.4881C45.8244 22.8006 46 23.2246 46 23.6666V28.6666Z" fill="#576980"/>
</svg>
