<svg width="80" height="80" viewBox="0 0 80 80" fill="none" xmlns="http://www.w3.org/2000/svg">
<path d="M52.3664 27.6334C52.0566 27.3209 51.6879 27.0729 51.2817 26.9037C50.8755 26.7345 50.4398 26.6474 49.9998 26.6474C49.5597 26.6474 49.1241 26.7345 48.7179 26.9037C48.3117 27.0729 47.943 27.3209 47.6331 27.6334L39.9998 35.3L32.3664 27.6334C31.7388 27.0057 30.8874 26.653 29.9998 26.653C29.1121 26.653 28.2608 27.0057 27.6331 27.6334C27.0054 28.261 26.6528 29.1123 26.6528 30C26.6528 30.8877 27.0054 31.739 27.6331 32.3667L35.2998 40L27.6331 47.6334C27.3207 47.9432 27.0727 48.3119 26.9035 48.7181C26.7342 49.1243 26.6471 49.56 26.6471 50C26.6471 50.4401 26.7342 50.8757 26.9035 51.2819C27.0727 51.6881 27.3207 52.0568 27.6331 52.3667C27.943 52.6791 28.3117 52.9271 28.7179 53.0963C29.1241 53.2656 29.5597 53.3527 29.9998 53.3527C30.4398 53.3527 30.8755 53.2656 31.2817 53.0963C31.6879 52.9271 32.0566 52.6791 32.3664 52.3667L39.9998 44.7L47.6331 52.3667C47.943 52.6791 48.3117 52.9271 48.7179 53.0963C49.1241 53.2656 49.5597 53.3527 49.9998 53.3527C50.4398 53.3527 50.8755 53.2656 51.2817 53.0963C51.6879 52.9271 52.0566 52.6791 52.3664 52.3667C52.6789 52.0568 52.9268 51.6881 53.0961 51.2819C53.2653 50.8757 53.3524 50.4401 53.3524 50C53.3524 49.56 53.2653 49.1243 53.0961 48.7181C52.9268 48.3119 52.6789 47.9432 52.3664 47.6334L44.6998 40L52.3664 32.3667C52.6789 32.0568 52.9268 31.6881 53.0961 31.2819C53.2653 30.8757 53.3524 30.4401 53.3524 30C53.3524 29.56 53.2653 29.1243 53.0961 28.7181C52.9268 28.3119 52.6789 27.9432 52.3664 27.6334ZM63.5664 16.4334C60.4916 13.2497 56.8134 10.7103 52.7466 8.96331C48.6798 7.21634 44.3058 6.2968 39.8798 6.25834C35.4538 6.21988 31.0645 7.06327 26.968 8.7393C22.8714 10.4153 19.1497 12.8904 16.0199 16.0202C12.8902 19.1499 10.4151 22.8717 8.73905 26.9682C7.06302 31.0648 6.21963 35.4541 6.25809 39.8801C6.29656 44.306 7.2161 48.68 8.96306 52.7468C10.71 56.8136 13.2494 60.4918 16.4331 63.5667C19.508 66.7504 23.1862 69.2898 27.253 71.0367C31.3198 72.7837 35.6938 73.7032 40.1197 73.7417C44.5457 73.7802 48.935 72.9368 53.0316 71.2607C57.1281 69.5847 60.8499 67.1096 63.9796 63.9799C67.1094 60.8501 69.5845 57.1284 71.2605 53.0318C72.9365 48.9353 73.7799 44.546 73.7415 40.12C73.703 35.694 72.7835 31.32 71.0365 27.2532C69.2895 23.1864 66.7501 19.5082 63.5664 16.4334ZM58.8664 58.8667C54.5066 63.2314 48.7682 65.9494 42.6291 66.5577C36.4899 67.166 30.3298 65.6269 25.1982 62.2026C20.0666 58.7783 16.281 53.6807 14.4864 47.7783C12.6917 41.8759 12.9991 35.5338 15.3562 29.8326C17.7132 24.1314 21.974 19.4238 27.4127 16.5119C32.8515 13.5999 39.1316 12.6638 45.1831 13.8629C51.2347 15.0621 56.6833 18.3223 60.6006 23.0882C64.5179 27.8541 66.6616 33.8308 66.6664 40C66.6783 43.5043 65.9951 46.9762 64.6562 50.2146C63.3173 53.4531 61.3494 56.3938 58.8664 58.8667Z" fill="#FF4949"/>
</svg>
