<svg width="80" height="80" viewBox="0 0 80 80" fill="none" xmlns="http://www.w3.org/2000/svg">
<path d="M49.067 29.3001L34.767 43.6334L29.267 38.1334C28.9682 37.7845 28.6005 37.5011 28.1869 37.301C27.7734 37.1009 27.3229 36.9885 26.8639 36.9708C26.4048 36.953 25.947 37.0304 25.5193 37.198C25.0915 37.3655 24.703 37.6197 24.3782 37.9446C24.0533 38.2694 23.7991 38.6579 23.6315 39.0857C23.464 39.5134 23.3866 39.9712 23.4043 40.4303C23.4221 40.8893 23.5345 41.3398 23.7346 41.7533C23.9347 42.1669 24.2181 42.5346 24.567 42.8334L32.4003 50.7001C32.7118 51.009 33.0812 51.2534 33.4873 51.4193C33.8934 51.5852 34.3283 51.6693 34.767 51.6668C35.6415 51.6631 36.4795 51.3159 37.1003 50.7001L53.767 34.0334C54.0794 33.7235 54.3274 33.3549 54.4966 32.9487C54.6659 32.5425 54.753 32.1068 54.753 31.6667C54.753 31.2267 54.6659 30.791 54.4966 30.3848C54.3274 29.9786 54.0794 29.61 53.767 29.3001C53.1425 28.6792 52.2976 28.3308 51.417 28.3308C50.5364 28.3308 49.6916 28.6792 49.067 29.3001ZM40.0003 6.66675C33.4076 6.66675 26.963 8.62171 21.4813 12.2844C15.9997 15.9471 11.7273 21.1531 9.20436 27.244C6.68143 33.3348 6.02132 40.0371 7.3075 46.5031C8.59367 52.9691 11.7684 58.9086 16.4301 63.5703C21.0919 68.2321 27.0313 71.4068 33.4973 72.6929C39.9634 73.9791 46.6656 73.319 52.7565 70.7961C58.8473 68.2732 64.0533 64.0007 67.716 58.5191C71.3787 53.0375 73.3337 46.5928 73.3337 40.0001C73.3337 35.6227 72.4715 31.2882 70.7963 27.244C69.1212 23.1998 66.6658 19.5251 63.5706 16.4299C60.4753 13.3346 56.8006 10.8793 52.7565 9.2041C48.7123 7.52894 44.3777 6.66675 40.0003 6.66675ZM40.0003 66.6668C34.7262 66.6668 29.5704 65.1028 25.1851 62.1726C20.7998 59.2424 17.3819 55.0777 15.3636 50.205C13.3452 45.3323 12.8171 39.9705 13.8461 34.7977C14.875 29.6248 17.4148 24.8733 21.1442 21.1439C24.8736 17.4145 29.6251 14.8747 34.7979 13.8458C39.9708 12.8169 45.3325 13.345 50.2052 15.3633C55.0779 17.3816 59.2427 20.7996 62.1729 25.1849C65.103 29.5702 66.667 34.7259 66.667 40.0001C66.667 47.0725 63.8575 53.8553 58.8565 58.8563C53.8556 63.8572 47.0728 66.6668 40.0003 66.6668Z" fill="#13CE66"/>
</svg>
