<svg width="51" height="48" viewBox="0 0 51 48" fill="none" xmlns="http://www.w3.org/2000/svg">
<path fill-rule="evenodd" clip-rule="evenodd" d="M45.6898 1.50951V21.283L45.6902 21.2838C48.5787 21.2973 50.9251 23.6496 50.9251 26.541C50.9251 27.954 50.3755 29.2757 49.3794 30.2642C48.4068 31.2451 47.0941 31.793 45.6902 31.7989V35.6224C45.6902 36.4564 45.0147 37.1319 44.1807 37.1319H40.2558V41.0565C40.2558 41.8904 39.5802 42.566 38.7463 42.566H34.8213V46.4905C34.8213 47.3244 34.1457 48 33.3118 48H6.74439C5.91045 48 5.23488 47.3244 5.23488 46.4905V31.7986C2.34643 31.7851 0 29.4324 0 26.5406C0 25.1284 0.549646 23.8059 1.54574 22.8182C2.5183 21.8373 3.83147 21.2894 5.23488 21.2835V12.378C5.23488 11.544 5.91045 10.8685 6.74439 10.8685H10.6693V6.94396C10.6693 6.11002 11.3449 5.43445 12.1789 5.43445L16.1034 5.43403V1.50951C16.1034 0.675572 16.7789 0 17.6129 0H44.1803C45.0142 0 45.6898 0.675572 45.6898 1.50951ZM42.6708 3.01903H19.1224L19.1226 5.43424H38.7463C39.5802 5.43424 40.2558 6.10982 40.2558 6.94376V28.781H42.6708V3.01903ZM37.2368 8.45348H13.6884L13.6875 8.45403V10.869H25.1598C25.2571 10.869 25.3523 10.8791 25.4466 10.8972C25.4487 10.8975 25.4506 10.8974 25.4525 10.8975C25.4536 10.8975 25.4548 10.8975 25.4559 10.8977C25.5835 10.9229 25.704 10.9705 25.8207 11.0274C25.8501 11.0426 25.8792 11.0577 25.9083 11.0746C26.0228 11.1407 26.1327 11.2152 26.2275 11.3108L34.3791 19.4624C34.4747 19.558 34.5501 19.668 34.6158 19.7825C34.6322 19.8112 34.6474 19.839 34.6617 19.8685C34.7194 19.9855 34.767 20.1068 34.7923 20.2349C34.7927 20.2366 34.7927 20.2378 34.7927 20.2391C34.8116 20.3347 34.8218 20.4316 34.8218 20.5301V28.7823H37.2368V8.45348ZM29.6673 19.0192L26.6702 16.0221V19.0192H29.6673ZM23.6511 13.8875H8.25412L8.25402 28.7809H14.0229C14.0277 28.7623 14.0342 28.7443 14.0406 28.7263C14.0467 28.7093 14.0528 28.6924 14.0575 28.6748C14.1106 28.4777 14.1729 28.2835 14.2453 28.0931C14.2525 28.0745 14.2587 28.0556 14.265 28.0368C14.2731 28.0122 14.2812 27.9877 14.2912 27.9638C14.3835 27.7356 14.4909 27.5149 14.6105 27.2992C14.6292 27.2653 14.6497 27.2322 14.6702 27.1989C14.6826 27.179 14.6949 27.159 14.7069 27.1387C14.8055 26.9741 14.9116 26.8127 15.0258 26.6565L15.0405 26.6362C15.0777 26.5853 15.1148 26.5344 15.1538 26.4842C15.3092 26.2867 15.4722 26.0946 15.6521 25.9148C16.8213 24.7456 18.3754 24.1021 20.0286 24.1021C21.6817 24.1021 23.2363 24.7456 24.4051 25.9152C24.5849 26.095 24.7475 26.2867 24.9021 26.4834C24.9349 26.5255 24.9664 26.5688 24.9978 26.612C25.0091 26.6276 25.0204 26.6431 25.0318 26.6586C25.1447 26.814 25.25 26.9732 25.3477 27.1375C25.359 27.1563 25.3705 27.175 25.382 27.1936C25.4041 27.2292 25.4261 27.2648 25.4462 27.3013C25.5654 27.5161 25.6724 27.7372 25.7647 27.9642C25.7746 27.989 25.7831 28.0139 25.7916 28.0388C25.7982 28.058 25.8047 28.0772 25.8118 28.0961C25.8834 28.2856 25.9458 28.4789 25.9988 28.6756C26.0035 28.6932 26.0096 28.7102 26.0157 28.7271C26.0222 28.7451 26.0286 28.7631 26.0334 28.7818H31.8027V22.0391H25.1607C24.3267 22.0391 23.6511 21.3635 23.6511 20.5296V13.8875ZM22.2696 32.5325C22.8685 31.9335 23.1983 31.1371 23.1983 30.2905L23.1983 30.2906C23.1983 29.444 22.8686 28.6484 22.2701 28.0495C21.6715 27.4501 20.8751 27.1203 20.0285 27.1203C19.182 27.1203 18.3855 27.4501 17.787 28.0491C17.1881 28.6476 16.8583 29.444 16.8583 30.2906C16.8583 32.0384 18.2802 33.4603 20.0281 33.4603C20.8754 33.4603 21.6711 33.131 22.2696 32.5325ZM3.6806 24.9533C3.25057 25.3796 3.01935 25.9406 3.01935 26.5412L3.01933 26.5412C3.01933 27.7681 4.01129 28.7684 5.23561 28.781V24.3013C4.643 24.3076 4.09167 24.5384 3.6806 24.9533ZM8.25412 44.981H31.8025L31.8023 31.7993L26.0321 31.7981C26.0273 31.8165 26.0209 31.8345 26.0144 31.8526C26.0083 31.8695 26.0023 31.8864 25.9976 31.9038C25.9445 32.1009 25.8822 32.2951 25.8097 32.4854C25.8034 32.5025 25.7975 32.5197 25.7917 32.537C25.7829 32.5632 25.7741 32.5893 25.7634 32.6147C25.6712 32.8426 25.5638 33.0633 25.4441 33.2789C25.4249 33.3145 25.4037 33.3488 25.3825 33.3831C25.3708 33.4021 25.3591 33.4211 25.3477 33.4402C25.2491 33.6049 25.1434 33.7658 25.0293 33.9221C24.9872 33.9806 24.9455 34.0383 24.9008 34.0952C24.7462 34.2927 24.5833 34.4848 24.4034 34.6646C23.235 35.8338 21.6809 36.4773 20.0269 36.4773C19.8285 36.4773 19.6323 36.4664 19.4377 36.4478C19.3955 36.4439 19.354 36.438 19.3127 36.4322C19.2926 36.4293 19.2725 36.4265 19.2523 36.4238C19.1213 36.4074 18.9908 36.3889 18.8623 36.364C18.8081 36.3533 18.7538 36.3411 18.6997 36.3289C18.6837 36.3253 18.6677 36.3217 18.6517 36.3181C18.5342 36.2916 18.4176 36.2617 18.3022 36.228C18.2314 36.2078 18.1615 36.1863 18.092 36.1635C17.977 36.1256 17.8641 36.0839 17.7525 36.0393C17.7353 36.0325 17.7181 36.0257 17.7009 36.019C17.6544 36.0008 17.6079 35.9826 17.5622 35.9626C17.4362 35.9079 17.3128 35.8468 17.1915 35.7841C17.1746 35.7755 17.1574 35.7671 17.1402 35.7587C17.1129 35.7454 17.0855 35.732 17.0588 35.7175C16.8963 35.6282 16.7387 35.5322 16.5854 35.4294C16.5651 35.4159 16.5454 35.401 16.5256 35.3861C16.5099 35.3742 16.4941 35.3623 16.478 35.3511C16.3631 35.2702 16.2498 35.1868 16.1407 35.0988C16.0977 35.0645 16.0567 35.0284 16.0156 34.9923C16.0064 34.9841 15.9971 34.976 15.9878 34.9678C15.8976 34.8908 15.81 34.8116 15.725 34.7294C15.6727 34.6793 15.6222 34.6271 15.5721 34.5753C15.4921 34.4923 15.415 34.4068 15.34 34.3201C15.3299 34.3082 15.3197 34.2963 15.3095 34.2845C15.2732 34.2421 15.2367 34.1996 15.2019 34.1558C15.126 34.061 15.0536 33.9629 14.9829 33.8631C14.9697 33.8445 14.9562 33.826 14.9428 33.8076C14.9188 33.7748 14.8949 33.7421 14.8725 33.7081C14.7807 33.5699 14.6944 33.4272 14.6135 33.2819C14.6092 33.2742 14.6046 33.2667 14.6 33.2592C14.5947 33.2506 14.5894 33.242 14.5844 33.233C14.496 33.07 14.4155 32.9015 14.3418 32.7301C14.3273 32.6956 14.314 32.6606 14.3007 32.6254C14.2936 32.6066 14.2864 32.5877 14.2791 32.5688C14.2306 32.4475 14.1843 32.3249 14.1439 32.1998C14.1272 32.1477 14.1121 32.0951 14.0969 32.0421C14.0929 32.0283 14.0889 32.0145 14.0849 32.0006C14.0775 31.9752 14.0696 31.95 14.0616 31.9247C14.0486 31.8834 14.0355 31.842 14.0251 31.7997H8.25412V44.981ZM34.8215 39.5465H37.2365V31.7997H34.8215V39.5465ZM40.256 34.1125H42.671V31.7998H40.256V34.1125ZM45.6896 28.7808C46.2822 28.7741 46.8335 28.5441 47.2446 28.1292C47.6746 27.703 47.9059 27.142 47.9054 26.5406C47.9054 25.3136 46.9136 24.3146 45.6896 24.3011V28.7808ZM10.2648 41.5105C10.2648 41.1121 10.4278 40.7259 10.7058 40.442L10.7058 40.442C11.2673 39.8806 12.2819 39.8806 12.8429 40.4411C13.1208 40.7255 13.2838 41.1113 13.2838 41.5105C13.2838 41.9094 13.1204 42.2952 12.8429 42.5791C12.5594 42.8562 12.1728 43.02 11.7743 43.02C11.3759 43.02 10.9897 42.8566 10.7058 42.5791C10.4278 42.2956 10.2648 41.909 10.2648 41.5105Z" fill="#6029E3"/>
</svg>
